<svg width="1000" height="1000" viewBox="0 0 1000 1000" fill="none" xmlns="http://www.w3.org/2000/svg">
<rect width="1000" height="1000" fill="#004AFF"/>
<path d="M304.259 420.75C304.831 418.501 303.86 416.143 301.868 414.95C300.052 413.861 297.759 413.967 296.052 415.22L277.366 428.927C261.493 440.572 239.189 437.231 227.43 421.449C215.646 405.631 218.884 383.27 234.672 371.439L256.94 354.751C266.681 347.557 276.846 342.267 287.435 338.881C298.447 335.073 308.823 333.168 318.565 333.168C335.506 333.168 350.33 337.823 363.037 347.134C374.075 355.222 381.277 366.184 384.644 380.021C385.54 383.703 388.713 386.491 392.506 386.491C395.461 386.491 398.132 384.78 399.516 382.171C407.8 366.541 418.935 354.651 432.921 346.499C448.168 337.612 465.322 333.168 484.381 333.168C508.523 333.168 528.006 340.786 542.83 356.021C558.077 370.833 565.701 391.569 565.701 418.231C565.701 423.732 565.277 429.234 564.43 434.735C564.007 439.814 562.948 446.162 561.254 453.779C559.366 462.079 552.279 468.177 543.784 468.81L482.016 473.416C477.484 473.754 473.899 469.646 474.851 465.205C476.122 458.857 476.757 453.144 476.757 448.066C476.757 435.793 473.369 426.06 466.592 418.865C459.816 411.671 449.651 408.074 436.097 408.074C419.156 408.074 405.602 413.787 395.437 425.213C385.696 436.64 378.496 452.933 373.837 474.093L352.779 548.934C346.885 569.879 362.639 590.656 384.414 590.656C402.563 590.656 417.276 605.357 417.276 623.492V628.744C417.276 649.779 400.21 666.832 379.158 666.832H238.119C217.066 666.832 200 649.779 200 628.744V624.942C200 606.007 215.363 590.656 234.314 590.656C250.006 590.656 263.698 580.02 267.568 564.825L304.259 420.75Z" fill="white"/>
<path d="M682.95 474.092C684.644 466.052 685.491 459.281 685.491 453.779C685.491 438.544 681.044 426.695 672.15 418.231C663.255 409.767 651.185 405.535 635.937 405.535C626.065 405.535 611.449 411.002 603.579 418.865C590.026 432.408 571.136 459.419 566.477 482.271L520.844 637.697C515.773 654.967 499.915 666.832 481.902 666.832C456.241 666.832 437.021 643.332 442.133 618.205L460.255 529.122C465.704 502.34 490.226 483.778 517.504 485.788C543.031 487.669 566.41 471.496 573.633 446.961L588.526 396.374C590.345 390.195 592.565 384.116 595.667 378.471C604.09 363.143 612.32 355.074 626.408 347.134C643.349 337.823 661.985 333.168 682.315 333.168C708.998 333.168 730.175 341.209 745.846 357.29C761.94 373.372 769.988 396.013 769.988 425.213C769.988 431.985 769.564 438.332 768.717 444.257C767.87 449.759 766.811 455.895 765.54 462.666L740.918 577.684C740.439 579.92 741.346 582.225 743.221 583.536C745.179 584.905 747.785 584.907 749.745 583.541L757.595 578.068C766.495 571.864 778.758 574.165 784.8 583.172L793.974 596.85C804.929 613.182 800.531 635.298 784.159 646.204L779.517 649.296C763.423 660.299 746.269 665.8 728.057 665.8C718.739 665.8 709.845 664.107 701.374 660.722C692.903 657.759 685.491 653.527 679.138 648.026C672.785 642.101 667.703 635.118 663.891 627.078C660.079 618.614 658.173 609.092 658.173 598.512C658.173 593.01 658.808 586.663 660.079 579.468L682.95 474.092Z" fill="white"/>
</svg>
